<svg width="17" height="16" viewBox="0 0 16 17" fill="none" xmlns="http://www.w3.org/2000/svg">
<path d="M8.5 16C5.625 16 3 14.5 1.5625 12C0.125 9.53125 0.125 6.5 1.5625 4C3 1.53125 5.625 0 8.5 0C11.3438 0 13.9688 1.53125 15.4062 4C16.8438 6.5 16.8438 9.53125 15.4062 12C13.9688 14.5 11.3438 16 8.5 16ZM5.96875 5.46875C5.65625 5.78125 5.65625 6.25 5.96875 6.53125L7.4375 8L5.96875 9.46875C5.65625 9.78125 5.65625 10.25 5.96875 10.5312C6.25 10.8438 6.71875 10.8438 7 10.5312L8.46875 9.0625L9.9375 10.5312C10.25 10.8438 10.7188 10.8438 11 10.5312C11.3125 10.25 11.3125 9.78125 11 9.46875L9.53125 8L11 6.53125C11.3125 6.25 11.3125 5.78125 11 5.46875C10.7188 5.1875 10.25 5.1875 9.9375 5.46875L8.46875 6.9375L7 5.46875C6.71875 5.1875 6.25 5.1875 5.96875 5.46875Z" fill="#146947"/>
</svg>