<svg width="17" height="16" viewBox="0 0 16 17" fill="none" xmlns="http://www.w3.org/2000/svg">
<path d="M9.08594 16C6.21094 16 3.58594 14.5 2.14844 12C0.710938 9.53125 0.710938 6.5 2.14844 4C3.58594 1.53125 6.21094 0 9.08594 0C11.9297 0 14.5547 1.53125 15.9922 4C17.4297 6.5 17.4297 9.53125 15.9922 12C14.5547 14.5 11.9297 16 9.08594 16ZM12.6172 6.53125H12.5859C12.8984 6.25 12.8984 5.78125 12.5859 5.46875C12.3047 5.1875 11.8359 5.1875 11.5547 5.46875L8.08594 8.96875L6.61719 7.5C6.30469 7.1875 5.83594 7.1875 5.55469 7.5C5.24219 7.78125 5.24219 8.25 5.55469 8.53125L7.55469 10.5312C7.83594 10.8438 8.30469 10.8438 8.61719 10.5312L12.6172 6.53125Z" fill="#EF5E25"/>
</svg>